<svg width="36" height="36" viewBox="0 0 36 36" fill="none" xmlns="http://www.w3.org/2000/svg">
<rect width="36" height="36" rx="6" fill="#FFDDCD"/>
<path d="M11.2621 29.5645C12.1273 29.5645 12.8998 29.4409 13.5797 29.1937C14.2595 28.9465 14.8569 28.5035 15.372 27.8649C15.887 27.2057 16.3299 26.2786 16.7007 25.0838L17.9059 21.2211C18.1737 20.4176 18.4209 19.7893 18.6475 19.3361C18.8536 18.8828 19.0905 18.5635 19.3583 18.3781C19.6261 18.1927 19.966 18.1 20.378 18.1C20.584 18.1 20.7695 18.1 20.9343 18.1C21.0991 18.1 21.2433 18.1103 21.3669 18.1309V26.9688C21.3669 27.4838 21.3051 27.8649 21.1815 28.1121C21.0373 28.3593 20.7077 28.5035 20.1926 28.5447L18.5239 28.6065V29.1319H28.876V28.6065L27.4545 28.5138C27.0631 28.4932 26.8056 28.3696 26.682 28.143C26.5584 27.9164 26.4966 27.4941 26.4966 26.876V8.6441C26.4966 8.12908 26.5687 7.76856 26.7129 7.56255C26.8365 7.35654 27.1249 7.24323 27.5781 7.22263L28.876 7.16083V6.6355H19.7909C18.4312 6.6355 17.1952 6.7282 16.0827 6.91361C14.9703 7.09902 14.0226 7.40804 13.2398 7.84066C12.4569 8.25268 11.8595 8.80891 11.4475 9.50935C11.0149 10.1892 10.7985 11.0441 10.7985 12.0742C10.7985 12.7746 10.9221 13.4133 11.1694 13.9901C11.396 14.5463 11.7153 15.0407 12.1273 15.4734C12.5393 15.906 13.0338 16.2768 13.6106 16.5858C14.1668 16.8948 14.7848 17.1523 15.4647 17.3584C16.1239 17.5644 16.8141 17.6983 17.5351 17.7601V17.8837C16.2578 18.0485 15.2072 18.4193 14.3831 18.9961C13.5591 19.573 12.972 20.3352 12.6217 21.2829L11.293 24.8365C11.0458 25.434 10.8088 25.949 10.5822 26.3816C10.3556 26.7936 10.0981 27.1233 9.80969 27.3705C9.50067 27.5971 9.12985 27.7104 8.69723 27.7104C8.40882 27.7104 8.1101 27.6692 7.80109 27.5868C7.47147 27.4838 7.19335 27.3602 6.96674 27.216L6.75043 27.5868C7.30666 28.2048 7.97619 28.6889 8.75903 29.0392C9.52127 29.3894 10.3556 29.5645 11.2621 29.5645ZM20.1308 17.4511C19.2038 17.4511 18.4518 17.2553 17.875 16.8639C17.2982 16.4519 16.8759 15.8648 16.608 15.1025C16.3196 14.3197 16.1754 13.3823 16.1754 12.2905C16.1754 11.1574 16.3093 10.2304 16.5771 9.50935C16.8244 8.76771 17.2364 8.21148 17.8132 7.84066C18.3694 7.46984 19.1214 7.28443 20.069 7.28443H21.336V17.4202C21.0888 17.4408 20.8622 17.4511 20.6562 17.4511C20.4501 17.4511 20.275 17.4511 20.1308 17.4511Z" fill="#68153D"/>
<path d="M11.7108 32.0911L22.5881 3.90887H23.7006L12.8232 32.0911H11.7108Z" fill="#FE9332"/>
<path fill-rule="evenodd" clip-rule="evenodd" d="M10.3857 33L21.9647 3H25.0256L13.4466 33H10.3857ZM11.7108 32.0911H12.8232L23.7006 3.90887H22.5881L11.7108 32.0911Z" fill="#FE9332"/>
</svg>
